<svg width="25" height="25" viewBox="0 0 25 25" fill="none" xmlns="http://www.w3.org/2000/svg">
<path d="M21.0685 12.9768C21.2584 12.7918 21.3671 12.5389 21.3706 12.2738C21.3741 12.0087 21.2722 11.753 21.0873 11.563L15.506 5.8312C15.4151 5.73448 15.3057 5.65683 15.1844 5.6028C15.0631 5.54878 14.9323 5.51945 14.7996 5.51653C14.6668 5.51361 14.5348 5.53715 14.4112 5.5858C14.2877 5.63444 14.1751 5.7072 14.0799 5.79983C13.9848 5.89247 13.9091 6.00312 13.8571 6.12534C13.8052 6.24756 13.7782 6.37889 13.7776 6.51167C13.777 6.64445 13.8028 6.77603 13.8536 6.89872C13.9044 7.02141 13.9791 7.13276 14.0733 7.22627L17.9704 11.2285L4.72861 11.0523C4.46342 11.0487 4.20768 11.1507 4.01767 11.3357C3.82766 11.5208 3.71892 11.7737 3.7154 12.0389C3.71187 12.3041 3.81383 12.5598 3.99885 12.7498C4.18388 12.9398 4.43681 13.0486 4.702 13.0521L17.9438 13.2283L13.9416 17.1254C13.757 17.3116 13.6528 17.5628 13.6516 17.825C13.6504 18.0872 13.7522 18.3394 13.9352 18.5272C14.1181 18.7151 14.3675 18.8236 14.6296 18.8294C14.8918 18.8351 15.1457 18.7377 15.3367 18.5581L21.0685 12.9768Z" fill="black"/>
</svg>
